<svg width="26" height="23" viewBox="0 0 26 23" fill="none" xmlns="http://www.w3.org/2000/svg">
<path d="M17.25 10.5C17.25 13.1234 15.1234 15.25 12.5 15.25C9.87665 15.25 7.75 13.1234 7.75 10.5C7.75 7.87665 9.87665 5.75 12.5 5.75C15.1234 5.75 17.25 7.87665 17.25 10.5Z" stroke="#525164" stroke-width="1.5" stroke-linecap="round" stroke-linejoin="round"/>
<path d="M1.08333 0.75H24.9167C25.0592 0.75 25.25 0.886259 25.25 1.15V21.85C25.25 22.1137 25.0592 22.25 24.9167 22.25H1.08333C0.940805 22.25 0.75 22.1137 0.75 21.85V1.15C0.75 0.88626 0.940805 0.75 1.08333 0.75Z" stroke="#525164" stroke-width="1.5" stroke-linecap="round" stroke-linejoin="round"/>
<mask id="path-3-inside-1_3221_901" fill="white">
<path d="M4 23C4.65687 20.9532 5.87526 19.1807 7.4872 17.927C9.09915 16.6733 11.0253 16 13 16C14.9747 16 16.9009 16.6733 18.5128 17.927C20.1247 19.1807 21.3431 20.9532 22 23"/>
</mask>
<path d="M2.57175 22.5416C2.3186 23.3304 2.75284 24.1751 3.54164 24.4283C4.33044 24.6814 5.17511 24.2472 5.42825 23.4584L2.57175 22.5416ZM13 16L13 14.5L13 16ZM20.5717 23.4584C20.8249 24.2472 21.6696 24.6814 22.4584 24.4283C23.2472 24.1751 23.6814 23.3304 23.4283 22.5416L20.5717 23.4584ZM5.42825 23.4584C5.99801 21.683 7.04737 20.1694 8.40812 19.111L6.56629 16.743C4.70315 18.1921 3.31572 20.2234 2.57175 22.5416L5.42825 23.4584ZM8.40812 19.111C9.76645 18.0546 11.3709 17.5 13 17.5L13 14.5C10.6796 14.5 8.43185 15.292 6.56629 16.743L8.40812 19.111ZM13 17.5C14.6291 17.5 16.2336 18.0546 17.5919 19.111L19.4337 16.743C17.5681 15.292 15.3204 14.5 13 14.5L13 17.5ZM17.5919 19.111C18.9526 20.1694 20.002 21.683 20.5717 23.4584L23.4283 22.5416C22.6843 20.2234 21.2969 18.1921 19.4337 16.743L17.5919 19.111Z" fill="#525164" mask="url(#path-3-inside-1_3221_901)"/>
</svg>
