<svg width="27" height="25" viewBox="0 0 27 25" fill="none" xmlns="http://www.w3.org/2000/svg">
<path d="M24.9583 6H2.04167C1.46637 6 1 6.44772 1 7V23C1 23.5523 1.46637 24 2.04167 24H24.9583C25.5336 24 26 23.5523 26 23V7C26 6.44772 25.5336 6 24.9583 6Z" stroke="#525164" stroke-width="1.5" stroke-linecap="round" stroke-linejoin="round"/>
<path d="M19 6V3.5C19 2.83696 18.7893 2.20107 18.4142 1.73223C18.0391 1.26339 17.5304 1 17 1H11C10.4696 1 9.96086 1.26339 9.58579 1.73223C9.21071 2.20107 9 2.83696 9 3.5V6" stroke="#525164" stroke-width="1.5" stroke-linecap="round" stroke-linejoin="round"/>
<path d="M26 13C22.2013 14.9712 17.8888 16.0062 13.5 16C9.1114 16.0062 4.79898 14.9717 1 13.0012" stroke="#525164" stroke-width="1.5" stroke-linecap="round" stroke-linejoin="round"/>
<path d="M12 12H16" stroke="#525164" stroke-width="1.5" stroke-linecap="round" stroke-linejoin="round"/>
</svg>
