<svg width="26" height="26" viewBox="0 0 26 26" fill="none" xmlns="http://www.w3.org/2000/svg">
<path d="M23.8753 22.6613C22.266 19.7681 19.7859 17.6934 16.8917 16.71C18.3233 15.8237 19.4356 14.4732 20.0577 12.866C20.6799 11.2587 20.7774 9.48351 20.3355 7.81299C19.8935 6.14247 18.9365 4.66901 17.6113 3.61887C16.2861 2.56874 14.6661 2 13 2C11.3339 2 9.71389 2.56874 8.38871 3.61887C7.06353 4.66901 6.10647 6.14247 5.66452 7.81299C5.22256 9.48351 5.32013 11.2587 5.94226 12.866C6.56438 14.4732 7.67666 15.8237 9.10827 16.71C6.21405 17.6923 3.73404 19.767 2.12473 22.6613C2.06571 22.7614 2.02656 22.8728 2.0096 22.9888C1.99264 23.1049 1.9982 23.2233 2.02595 23.3371C2.05371 23.4509 2.1031 23.5577 2.17121 23.6513C2.23932 23.7449 2.32477 23.8234 2.42252 23.8821C2.52027 23.9409 2.62834 23.9786 2.74035 23.9932C2.85236 24.0078 2.96605 23.9989 3.0747 23.967C3.18335 23.9352 3.28476 23.881 3.37296 23.8077C3.46116 23.7345 3.53435 23.6436 3.58822 23.5404C5.57899 19.9626 9.09771 17.8264 13 17.8264C16.9023 17.8264 20.421 19.9626 22.4118 23.5404C22.4657 23.6436 22.5388 23.7345 22.627 23.8077C22.7152 23.881 22.8167 23.9352 22.9253 23.967C23.034 23.9989 23.1476 24.0078 23.2596 23.9932C23.3717 23.9786 23.4797 23.9409 23.5775 23.8821C23.6752 23.8234 23.7607 23.7449 23.8288 23.6513C23.8969 23.5577 23.9463 23.4509 23.974 23.3371C24.0018 23.2233 24.0074 23.1049 23.9904 22.9888C23.9734 22.8728 23.9343 22.7614 23.8753 22.6613ZM7.08263 9.9147C7.08263 8.69764 7.42968 7.50791 8.07989 6.49597C8.7301 5.48402 9.65426 4.69531 10.7355 4.22956C11.8168 3.76381 13.0066 3.64195 14.1544 3.87939C15.3023 4.11682 16.3567 4.70289 17.1842 5.56348C18.0118 6.42407 18.5753 7.52053 18.8037 8.7142C19.032 9.90787 18.9148 11.1451 18.4669 12.2696C18.0191 13.394 17.2606 14.355 16.2875 15.0312C15.3144 15.7073 14.1703 16.0682 13 16.0682C11.4311 16.0665 9.927 15.4176 8.81764 14.264C7.70829 13.1104 7.08431 11.5462 7.08263 9.9147Z" fill="#1C1777"/>
</svg>
