<svg width="26" height="24" viewBox="0 0 26 24" fill="none" xmlns="http://www.w3.org/2000/svg">
<path d="M8.66699 11C8.97394 11 9.23141 10.904 9.43941 10.712C9.64741 10.52 9.75105 10.2827 9.75033 10C9.75033 9.71667 9.64632 9.47933 9.43832 9.288C9.23032 9.09667 8.97321 9.00067 8.66699 9C8.36005 9 8.10294 9.096 7.89566 9.288C7.68838 9.48 7.58438 9.71733 7.58366 10C7.58366 10.2833 7.68766 10.521 7.89566 10.713C8.10366 10.905 8.36077 11.0007 8.66699 11ZM13.0003 11C13.3073 11 13.5647 10.904 13.7727 10.712C13.9807 10.52 14.0844 10.2827 14.0837 10C14.0837 9.71667 13.9797 9.47933 13.7717 9.288C13.5637 9.09667 13.3065 9.00067 13.0003 9C12.6934 9 12.4363 9.096 12.229 9.288C12.0217 9.48 11.9177 9.71733 11.917 10C11.917 10.2833 12.021 10.521 12.229 10.713C12.437 10.905 12.6941 11.0007 13.0003 11ZM17.3337 11C17.6406 11 17.8981 10.904 18.1061 10.712C18.3141 10.52 18.4177 10.2827 18.417 10C18.417 9.71667 18.313 9.47933 18.105 9.288C17.897 9.09667 17.6399 9.00067 17.3337 9C17.0267 9 16.7696 9.096 16.5623 9.288C16.355 9.48 16.251 9.71733 16.2503 10C16.2503 10.2833 16.3543 10.521 16.5623 10.713C16.7703 10.905 17.0274 11.0007 17.3337 11ZM2.16699 22V4C2.16699 3.45 2.37933 2.97933 2.80399 2.588C3.22866 2.19667 3.73855 2.00067 4.33366 2H21.667C22.2628 2 22.7731 2.196 23.1977 2.588C23.6224 2.98 23.8344 3.45067 23.8337 4V16C23.8337 16.55 23.6217 17.021 23.1977 17.413C22.7738 17.805 22.2635 18.0007 21.667 18H6.50033L2.16699 22ZM5.57949 16H21.667V4H4.33366V17.125L5.57949 16Z" fill="#525164"/>
</svg>
